<svg width="260" height="39" xmlns="http://www.w3.org/2000/svg" xmlns:xlink="http://www.w3.org/1999/xlink" xml:space="preserve" overflow="hidden"><defs><filter id="fx0" x="-10%" y="-10%" width="120%" height="120%" filterUnits="userSpaceOnUse" primitiveUnits="userSpaceOnUse"><feComponentTransfer color-interpolation-filters="sRGB"><feFuncR type="discrete" tableValues="0 0"/><feFuncG type="discrete" tableValues="0 0"/><feFuncB type="discrete" tableValues="0 0"/><feFuncA type="linear" slope="0.4" intercept="0"/></feComponentTransfer><feGaussianBlur stdDeviation="2.22222 2.22222"/></filter><clipPath id="clip1"><rect x="23" y="34" width="260" height="39"/></clipPath></defs><g clip-path="url(#clip1)" transform="translate(-23 -34)"><g filter="url(#fx0)" transform="translate(23 33)"><g><g><g><g><path d="M136.636 11.3058 128.626 35.3318C128.46 35.8242 128.344 36.1848 127.823 36.1848 127.302 36.1848 127.196 35.8148 126.945 35.3318L122.071 25.754 117.201 35.3318C116.956 35.8148 116.799 36.1848 116.323 36.1848 115.846 36.1848 115.696 35.8242 115.52 35.3318L107.51 11.3058 113.842 11.3058 117.59 23.4615 122.184 14.4263 126.782 23.4584 130.53 11.3027ZM161.242 11.3058 161.242 35.7677 167.122 35.7677C167.122 35.7677 167.122 11.3058 167.122 11.3058ZM156.807 29.7338C157.503 31.6939 157.968 33.0017 158.893 35.7803L152.37 35.7803C151.727 33.0801 151.234 31.0761 150.535 29.4045 149.707 27.4162 148.713 26.6698 146.737 26.6698L144.921 26.6698 144.921 35.7803 139.069 35.7803 139.069 11.3183 146.985 11.3183C150.689 11.3183 152.498 11.9989 154.063 13.2596 155.651 14.5499 156.549 16.5049 156.494 18.5503 156.559 20.9952 155.284 23.2807 153.169 24.509 154.697 25.4028 155.866 27.0618 156.807 29.7338ZM150.569 18.9392C150.622 17.9562 150.195 17.0087 149.425 16.3958 148.735 15.872 147.882 15.6839 146.166 15.6839L144.912 15.6839C144.912 15.6839 144.912 22.207 144.912 22.207L146.166 22.207C147.81 22.207 148.725 22.0346 149.428 21.4889 150.13 20.9432 150.569 20.0713 150.569 18.9392ZM220.342 25.7164 228.785 25.7164 228.785 20.9871 220.342 20.9871 220.342 16.1794 230.507 16.1794 230.507 11.3058 214.512 11.3058 214.512 35.7677 230.736 35.7677 230.736 30.8126 220.342 30.8126ZM201.993 11.3058 196.059 11.3058 196.059 35.7677 212.054 35.7677 212.054 30.8095 201.993 30.8095ZM247.498 11.3058 243.026 20.3191 238.557 11.3058 232.053 11.3058 239.934 25.9108 239.934 35.7803 245.811 35.7803 245.811 25.9108 253.692 11.3058ZM192.183 22.3513 181.583 22.3513 181.583 26.9489 186.453 26.9489 186.453 30.9349C185.376 31.4427 184.193 31.6848 183.004 31.6406 179.14 31.6406 176.483 28.818 176.483 23.8598 176.483 18.5911 179.171 15.5835 183.004 15.5835 185.277 15.5835 186.87 16.3707 188.153 17.8039L191.603 14.1879C189.31 11.9236 186.632 10.8667 182.702 10.8667 175.389 10.8667 170.512 16.4742 170.512 23.8378 170.512 31.4148 175.364 36.3636 182.743 36.3636 187.04 36.3636 189.865 35.1436 192.152 32.8511 192.183 32.8449 192.183 22.3513 192.183 22.3513Z" fill="#FFFFFF" transform="matrix(1.00465 0 0 1 -3.00186 -3.11674)"/><path d="M46.5749 11.08C46.1641 11.08 45.979 11.3246 45.8222 11.6821 36.1723 34.0115 35.36 35.7803 35.36 35.7803L40.8295 35.7803 41.9679 32.9766 50.2128 32.9766 51.3544 35.7803 57.7929 35.7803C57.7929 35.7803 57.2409 34.6325 47.3276 11.6821 47.1739 11.3246 46.9857 11.08 46.5749 11.08ZM43.7085 28.702 46.1013 22.8562 48.4848 28.702ZM32.158 11.6037C32.4262 11.2796 32.8226 11.0884 33.2431 11.08L33.2431 35.7803 28.0999 35.7803 28.0999 23.9696 22.1569 29.9063 16.217 23.9696 16.217 35.7803 11.08 35.7803 11.08 11.08C11.4978 11.0894 11.8906 11.2807 12.1557 11.6037L22.1569 21.608ZM74.013 24.4964C76.1293 23.2689 77.4054 20.9833 77.3405 18.5378 77.3994 16.4875 76.4997 14.5269 74.9068 13.2345 73.3388 11.9801 71.5323 11.2933 67.8286 11.2933L59.9004 11.2933 59.9004 35.7552 65.765 35.7552 65.765 26.6572 67.5745 26.6572C69.5503 26.6572 70.5445 27.4036 71.3724 29.392 72.0718 31.0729 72.5641 33.0675 73.207 35.7677L79.7334 35.7677C78.7925 32.9891 78.344 31.6908 77.6447 29.7213 76.6976 27.0618 75.5403 25.4028 74.013 24.4964ZM70.2716 21.4889C69.5691 22.0346 68.6534 22.207 67.01 22.207L65.7556 22.207C65.7556 22.207 65.7556 15.6839 65.7556 15.6839L67.01 15.6839C68.7255 15.6839 69.5785 15.872 70.2716 16.3958 71.04 17.01 71.4649 17.9569 71.4132 18.9392 71.4132 20.0713 71.018 20.9118 70.2716 21.4889ZM99.3123 31.6186C97.9136 34.8489 94.4952 36.3667 90.597 36.3667 86.589 36.3667 83.2709 35.0652 81.0411 32.365L84.4125 28.8525C85.9304 30.7342 88.0097 31.8319 90.321 31.7754 91.9988 31.7347 93.0181 31.0949 93.4289 30.1509 93.8535 29.188 93.5352 28.0592 92.67 27.4601 90.4747 25.7258 85.3659 25.6223 82.9479 22.2478 81.6176 20.335 81.3971 17.8616 82.3677 15.7435 83.6724 12.7453 86.6078 10.8667 90.4966 10.8667 93.8303 10.8667 96.9978 12.1369 98.9799 14.2412L95.6336 17.7663C94.3804 16.25 92.5169 15.3707 90.5499 15.3671 89.0822 15.3671 88.0881 16.0226 87.787 17.023 87.5392 17.8527 87.8453 18.7483 88.5491 19.2528 90.4308 20.7205 95.1977 21.1345 97.8258 23.6434 100.096 25.7885 100.532 28.793 99.3123 31.6186Z" fill="#FFFFFF" transform="matrix(1.00465 0 0 1 -3.00186 -3.11674)"/></g></g></g></g></g><g><g><g><path d="M133.956 11.0841 126.104 34.639C125.941 35.1218 125.827 35.4753 125.317 35.4753 124.806 35.4753 124.702 35.1125 124.456 34.639L119.678 25.249 114.903 34.639C114.663 35.1125 114.509 35.4753 114.042 35.4753 113.575 35.4753 113.427 35.1218 113.255 34.639L105.402 11.0841 111.61 11.0841 115.284 23.0015 119.788 14.1434 124.296 22.9984 127.97 11.081ZM158.08 11.0841 158.08 35.0664 163.845 35.0664C163.845 35.0664 163.845 11.0841 163.845 11.0841ZM153.733 29.1508C154.415 31.0724 154.87 32.3546 155.777 35.0787L149.382 35.0787C148.752 32.4314 148.269 30.4667 147.583 28.8279 146.772 26.8786 145.797 26.1468 143.86 26.1468L142.08 26.1468 142.08 35.0787 136.342 35.0787 136.342 11.0964 144.103 11.0964C147.734 11.0964 149.508 11.7636 151.042 12.9996 152.599 14.2646 153.48 16.1813 153.425 18.1866 153.489 20.5835 152.24 22.8242 150.166 24.0284 151.663 24.9047 152.81 26.5312 153.733 29.1508ZM147.617 18.5678C147.668 17.6041 147.25 16.6752 146.495 16.0743 145.818 15.5608 144.982 15.3763 143.3 15.3763L142.07 15.3763C142.07 15.3763 142.07 21.7716 142.07 21.7716L143.3 21.7716C144.911 21.7716 145.809 21.6025 146.498 21.0675 147.187 20.5325 147.617 19.6778 147.617 18.5678ZM216.022 25.2122 224.299 25.2122 224.299 20.5756 216.022 20.5756 216.022 15.8621 225.987 15.8621 225.987 11.0841 210.306 11.0841 210.306 35.0664 226.211 35.0664 226.211 30.2085 216.022 30.2085ZM198.032 11.0841 192.215 11.0841 192.215 35.0664 207.896 35.0664 207.896 30.2054 198.032 30.2054ZM242.645 11.0841 238.261 19.9207 233.88 11.0841 227.503 11.0841 235.229 25.4028 235.229 35.0787 240.991 35.0787 240.991 25.4028 248.718 11.0841ZM188.415 21.913 178.022 21.913 178.022 26.4205 182.797 26.4205 182.797 30.3284C181.741 30.8262 180.582 31.0635 179.415 31.0202 175.627 31.0202 173.023 28.253 173.023 23.392 173.023 18.2265 175.658 15.2779 179.415 15.2779 181.644 15.2779 183.206 16.0497 184.464 17.4548L187.846 13.9097C185.598 11.6898 182.973 10.6537 179.12 10.6537 171.95 10.6537 167.169 16.1511 167.169 23.3704 167.169 30.7988 171.925 35.6506 179.16 35.6506 183.372 35.6506 186.143 34.4546 188.384 32.207 188.415 32.2008 188.415 21.913 188.415 21.913Z" fill="#FFFFFF" transform="matrix(1.00465 0 0 1 22.606 30.3463)"/><path d="M45.6617 10.8627C45.2589 10.8627 45.0775 11.1026 44.9237 11.4531 35.463 33.3446 34.6667 35.0787 34.6667 35.0787L40.0289 35.0787 41.145 32.33 49.2283 32.33 50.3474 35.0787 56.6597 35.0787C56.6597 35.0787 56.1186 33.9534 46.3996 11.4531 46.2489 11.1026 46.0644 10.8627 45.6617 10.8627ZM42.8514 28.1392 45.1974 22.4081 47.5341 28.1392ZM31.5275 11.3762C31.7904 11.0584 32.179 10.871 32.5913 10.8627L32.5913 35.0787 27.5489 35.0787 27.5489 23.4996 21.7224 29.3199 15.899 23.4996 15.899 35.0787 10.8627 35.0787 10.8627 10.8627C11.2723 10.872 11.6575 11.0595 11.9174 11.3762L21.7224 21.1844ZM72.5618 24.0161C74.6366 22.8127 75.8876 20.5719 75.824 18.1743 75.8818 16.1642 74.9997 14.242 73.4381 12.975 71.9007 11.7452 70.1297 11.0718 66.4986 11.0718L58.7259 11.0718 58.7259 35.0541 64.4755 35.0541 64.4755 26.1345 66.2495 26.1345C68.1866 26.1345 69.1612 26.8663 69.9729 28.8156 70.6586 30.4637 71.1413 32.4191 71.7716 35.0664L78.17 35.0664C77.2476 32.3423 76.8079 31.0694 76.1222 29.1385 75.1937 26.5312 74.0592 24.9047 72.5618 24.0161ZM68.8937 21.0675C68.205 21.6025 67.3072 21.7716 65.6961 21.7716L64.4662 21.7716C64.4662 21.7716 64.4662 15.3763 64.4662 15.3763L65.6961 15.3763C67.3779 15.3763 68.2142 15.5608 68.8937 16.0743 69.647 16.6765 70.0636 17.6048 70.0129 18.5678 70.0129 19.6778 69.6255 20.5018 68.8937 21.0675ZM97.365 30.9986C95.9937 34.1655 92.6424 35.6537 88.8206 35.6537 84.8912 35.6537 81.6382 34.3777 79.4521 31.7304L82.7573 28.2868C84.2455 30.1316 86.284 31.2077 88.55 31.1524 90.1949 31.1124 91.1942 30.4852 91.597 29.5597 92.0133 28.6157 91.7012 27.509 90.8529 26.9217 88.7006 25.2214 83.692 25.1199 81.3215 21.8116 80.0172 19.9362 79.8011 17.5113 80.7527 15.4348 82.0317 12.4954 84.9096 10.6537 88.7222 10.6537 91.9905 10.6537 95.0959 11.8989 97.0391 13.962L93.7585 17.4179C92.5298 15.9314 90.7029 15.0693 88.7744 15.0658 87.3355 15.0658 86.3608 15.7084 86.0657 16.6892 85.8228 17.5027 86.1229 18.3807 86.8128 18.8753 88.6576 20.3142 93.3311 20.7201 95.9076 23.1798 98.1337 25.2829 98.5611 28.2284 97.365 30.9986Z" fill="#FFFFFF" transform="matrix(1.00465 0 0 1 22.606 30.3463)"/></g></g></g></g></svg>